<?xml version="1.0" encoding="utf-8"?>
<svg xmlns="http://www.w3.org/2000/svg" version="1.0" preserveAspectRatio="xMidYMid meet" viewBox="0 366.9 951.84 573.1">
  <g transform="translate(0.000000,1024.000000) scale(0.100000,-0.100000)" fill="#ffffff" stroke="none">
    <path d="M0 5570 l0 -1000 190 0 190 0 0 333 0 332 101 100 c99 99 100 100 117 79 9 -11 148 -206 307 -432 l290 -412 272 0 272 0 -429 586 c-237 322 -430 588 -430 592 0 4 183 190 407 414 l408 408 -272 0 -271 0 -377 -402 c-208 -222 -381 -404 -386 -406 -5 -2 -9 173 -9 402 l0 406 -190 0 -190 0 0 -1000z"/>
    <path d="M2140 5570 l0 -1000 215 0 215 0 0 1000 0 1000 -215 0 -215 0 0 -1000z"/>
    <path d="M3170 5570 l0 -1000 210 0 210 0 0 360 0 360 274 0 c292 0 366 8 481 51 169 63 268 174 317 357 30 112 30 345 0 455 -46 167 -137 278 -287 348 -141 66 -174 69 -720 69 l-485 0 0 -1000z m899 639 c27 -5 70 -24 96 -40 80 -51 118 -173 96 -308 -15 -95 -52 -148 -130 -188 l-63 -33 -239 0 -239 0 0 290 0 290 215 0 c117 0 236 -5 264 -11z"/>
    <path d="M5240 5571 l0 -1001 210 0 210 0 0 359 0 359 308 4 c283 4 313 6 382 27 205 61 323 176 375 366 25 92 31 320 11 424 -34 180 -129 312 -278 385 -145 71 -137 70 -705 74 l-513 3 0 -1000z m952 621 c104 -52 145 -138 136 -293 -6 -118 -44 -185 -133 -232 -37 -21 -56 -22 -287 -25 l-248 -3 0 291 0 292 243 -4 c230 -3 244 -4 289 -26z"/>
    <path d="M0 2595 c0 -965 2 -1755 4 -1755 2 0 82 33 178 74 95 41 324 138 508 216 362 154 513 218 1125 478 220 93 549 233 730 310 182 77 602 256 935 397 333 141 736 312 895 380 942 400 2352 999 3125 1327 91 39 298 126 460 195 162 69 297 127 299 129 2 2 -1855 4 -4127 4 l-4132 0 0 -1755z"/>
  </g>
</svg>