<?xml version="1.0" standalone="no"?>
<!DOCTYPE svg PUBLIC "-//W3C//DTD SVG 20010904//EN"
 "http://www.w3.org/TR/2001/REC-SVG-20010904/DTD/svg10.dtd">
<svg version="1.0" xmlns="http://www.w3.org/2000/svg"
 width="584.000000pt" height="360.000000pt" viewBox="0 0 584.000000 360.000000"
 preserveAspectRatio="xMidYMid meet">

<g transform="translate(0.000000,360.000000) scale(0.100000,-0.100000)"
fill="#ffffff" stroke="none">
<path d="M2108 3427 c-54 -52 -68 -57 -165 -57 l-94 0 -48 -45 c-30 -28 -57
-45 -72 -45 -33 0 -69 -27 -69 -51 0 -35 36 -59 89 -59 83 0 106 -9 170 -70
l61 -59 0 -68 c0 -51 5 -75 20 -98 11 -17 20 -47 20 -69 0 -34 7 -46 45 -83
36 -34 53 -43 80 -43 39 0 55 20 55 71 0 26 11 44 58 91 54 53 62 58 103 58
75 0 119 49 119 133 0 24 7 52 15 63 16 22 20 90 5 99 -19 12 -10 45 21 72 36
32 52 67 44 94 -6 17 -17 19 -89 19 -78 0 -84 1 -111 30 -28 30 -30 30 -136
30 -73 0 -112 -4 -121 -13z"/>
<path d="M1467 3361 c-6 -2 -38 -29 -69 -59 -65 -63 -71 -86 -38 -140 37 -61
108 -66 155 -10 15 18 25 42 25 62 0 41 26 66 67 66 23 0 39 9 57 31 26 31 33
48 19 50 -30 3 -206 3 -216 0z"/>
<path d="M1144 3248 c-40 -31 -45 -39 -42 -72 4 -36 48 -73 71 -59 36 19 128
117 125 132 -2 12 -18 17 -64 19 -50 2 -65 -1 -90 -20z"/>
<path d="M4269 3193 c-9 -2 -61 -49 -116 -103 l-99 -100 -95 0 -95 0 -39 -40
-39 -40 -89 0 c-87 0 -90 -1 -130 -35 -37 -32 -46 -35 -102 -35 -47 0 -66 4
-78 18 -23 25 -21 32 8 32 20 0 25 5 25 24 0 38 -52 76 -104 76 -30 0 -48 6
-61 20 -14 15 -31 20 -74 20 l-56 0 -98 -97 c-54 -54 -102 -105 -107 -113 -14
-21 -12 -127 2 -153 6 -12 14 -35 18 -52 7 -34 35 -42 34 -9 0 19 4 21 43 16
62 -7 83 15 83 84 0 48 4 56 37 89 20 20 46 35 60 35 28 0 29 -14 3 -47 -14
-18 -19 -39 -18 -78 1 -44 -3 -60 -26 -89 -27 -36 -28 -36 -103 -36 l-75 0
-83 -80 c-71 -70 -83 -86 -91 -128 l-9 -47 -53 -5 c-31 -3 -57 -12 -62 -20 -6
-8 -10 -41 -10 -72 0 -48 4 -59 22 -72 43 -31 108 -9 108 35 0 22 62 79 86 79
11 0 30 7 43 16 21 15 24 15 54 -12 47 -43 56 -57 57 -81 0 -36 18 -27 39 20
l20 42 -40 40 c-42 44 -47 55 -25 55 25 0 96 -87 96 -118 0 -30 16 -52 37 -52
7 0 13 7 13 15 0 8 14 21 30 30 20 10 30 23 30 38 0 32 66 95 82 79 16 -16 43
-15 58 3 19 23 54 18 84 -14 40 -42 32 -65 -25 -69 -32 -2 -50 2 -59 13 -20
24 -56 18 -95 -16 -32 -28 -36 -37 -33 -73 3 -41 3 -41 52 -48 27 -4 52 -10
56 -15 15 -16 20 -62 8 -69 -19 -12 -98 -7 -121 9 -44 29 -80 30 -117 2 -48
-35 -107 -35 -142 3 -15 15 -30 41 -34 57 -9 39 -19 45 -81 45 -42 0 -57 -5
-79 -25 -19 -18 -38 -25 -68 -25 -59 -1 -106 -45 -106 -100 0 -12 -29 -51 -70
-95 l-70 -74 0 -97 0 -97 78 -78 c75 -77 78 -79 129 -81 41 -2 59 3 83 20 61
45 115 36 157 -27 22 -32 23 -41 18 -164 l-6 -130 31 -38 c30 -38 30 -39 30
-161 l0 -123 41 -47 c46 -54 81 -67 175 -63 67 3 87 11 124 50 21 22 26 40 31
106 5 79 6 80 55 130 48 49 49 50 52 122 3 65 1 75 -22 101 -14 16 -26 38 -26
48 0 24 87 118 109 118 9 0 36 19 59 43 39 40 42 46 42 100 0 31 -4 57 -8 57
-5 0 -19 -11 -32 -25 -17 -18 -34 -25 -60 -25 -31 0 -45 8 -89 52 -46 47 -51
57 -51 96 0 54 -12 77 -62 124 -35 33 -39 41 -36 80 3 38 6 43 28 43 23 0 25
-4 28 -55 3 -49 8 -61 42 -99 36 -39 40 -49 40 -95 0 -44 4 -56 28 -78 58 -54
89 -45 185 59 56 60 67 78 67 107 0 40 -22 66 -56 66 -31 0 -109 69 -94 84 7
7 20 0 43 -22 28 -27 41 -32 80 -32 27 0 61 -7 77 -15 16 -8 44 -13 62 -11 43
5 89 -14 116 -49 17 -21 22 -41 22 -82 0 -61 16 -95 61 -131 37 -30 54 -19 62
40 4 33 17 52 63 99 74 75 101 78 169 19 25 -22 54 -40 63 -40 9 0 43 -26 75
-57 56 -55 59 -57 73 -39 19 26 18 80 -1 96 -14 12 -13 16 6 37 18 18 33 23
71 23 45 0 52 4 107 56 67 63 91 105 91 158 0 30 -8 44 -50 85 -27 27 -50 54
-50 60 0 15 41 51 59 51 9 0 33 -19 53 -42 31 -37 40 -41 55 -32 14 9 17 23
16 57 -2 39 1 49 23 66 15 12 37 21 49 21 12 0 40 17 63 38 40 37 42 42 43 98
2 102 -2 128 -22 150 -25 26 -25 27 12 69 l31 35 93 0 c78 0 96 3 119 21 15
12 37 19 53 17 40 -4 41 -36 3 -73 -29 -27 -30 -32 -30 -111 0 -45 3 -89 6
-98 11 -28 40 -17 83 29 l41 45 0 94 c0 109 4 115 83 127 42 7 59 16 90 48 33
36 37 46 37 94 0 82 -13 89 -152 88 -113 -2 -113 -2 -146 29 l-33 30 -210 0
-211 0 -31 35 -31 35 -127 0 -127 0 -39 41 c-57 61 -79 69 -185 68 -51 -1
-100 -3 -109 -6z m-614 -822 c3 -5 1 -12 -5 -16 -19 -11 -10 -41 20 -70 27
-25 30 -35 30 -87 0 -49 -3 -58 -18 -58 -21 0 -67 46 -76 76 -4 12 -15 29 -26
39 -27 25 -25 67 5 99 24 26 59 34 70 17z"/>
<path d="M1287 3163 c-12 -12 -7 -61 7 -66 29 -11 48 37 24 61 -14 14 -22 15
-31 5z"/>
<path d="M840 3132 c-57 -9 -78 -62 -39 -98 15 -14 40 -20 97 -23 68 -3 81 -7
110 -32 28 -25 41 -29 90 -29 66 0 82 11 82 57 0 47 -36 68 -118 68 -46 0 -67
4 -75 16 -31 41 -71 53 -147 41z"/>
<path d="M1215 3104 c-20 -20 -16 -63 7 -78 13 -8 22 -6 37 8 26 24 27 48 3
69 -23 21 -27 21 -47 1z"/>
<path d="M1391 3074 c-40 -33 -39 -63 1 -103 28 -27 39 -31 88 -31 69 0 90
-18 90 -77 0 -36 6 -46 54 -92 58 -54 92 -64 118 -33 21 24 20 61 -2 97 -16
26 -17 32 -4 49 8 11 14 26 14 34 0 7 -35 51 -77 98 l-78 84 -87 0 c-79 0 -89
-2 -117 -26z"/>
<path d="M237 2992 c-25 -26 -27 -34 -27 -113 0 -84 0 -85 -35 -119 -47 -45
-46 -75 3 -123 54 -53 84 -50 141 11 62 66 77 72 172 72 l82 0 114 -112 113
-112 0 -204 0 -205 97 -98 c53 -55 102 -99 110 -99 20 0 33 33 21 55 -6 11
-33 43 -60 71 -33 34 -46 54 -38 59 10 6 165 -131 196 -175 6 -8 13 -43 16
-78 4 -58 8 -66 45 -104 36 -36 46 -41 92 -42 51 -2 53 -3 144 -94 l91 -91
-27 -29 c-27 -28 -27 -30 -27 -158 l0 -131 70 -65 70 -64 0 -198 c0 -181 -2
-199 -20 -224 -17 -23 -20 -45 -22 -144 l-2 -118 49 -50 c48 -49 51 -50 107
-50 71 0 74 12 21 71 -31 35 -37 47 -37 90 l-1 49 106 107 c97 98 107 112 112
153 5 38 14 53 65 102 53 51 65 58 100 58 33 0 45 6 66 31 24 28 26 38 26 122
0 89 1 92 32 124 29 30 33 41 36 104 l4 71 -99 99 -99 99 -98 0 -99 0 -39 36
-40 35 -86 -3 c-48 -2 -95 -7 -104 -12 -23 -11 -198 156 -198 189 0 20 -6 23
-52 27 -63 6 -82 27 -75 81 8 59 20 67 102 67 65 0 77 -3 104 -26 60 -50 85 1
31 63 -17 18 -30 38 -30 43 0 5 20 32 45 60 29 33 45 60 45 77 0 19 18 46 65
94 51 52 65 74 65 97 0 42 40 72 95 72 28 0 51 7 69 21 22 17 26 28 26 74 0
51 -1 54 -62 114 l-62 61 -70 0 c-62 0 -73 -3 -98 -27 -24 -23 -28 -34 -28
-83 0 -54 -19 -100 -41 -100 -6 0 -55 43 -110 97 -65 64 -99 104 -99 118 0 12
19 41 45 67 44 45 50 61 47 127 -1 14 -16 39 -34 58 l-32 33 -12 -37 c-7 -20
-19 -40 -26 -44 -7 -5 -68 -9 -136 -9 l-122 0 -44 40 -43 40 -103 0 c-94 0
-104 -2 -132 -25 -43 -36 -78 -32 -133 15 l-46 40 -133 0 c-132 0 -132 0 -159
-28z"/>
<path d="M2462 2847 c-28 -30 -28 -52 0 -71 32 -22 61 -20 86 7 24 26 28 57
10 75 -20 20 -72 14 -96 -11z"/>
<path d="M1416 2808 c-21 -29 -20 -41 4 -63 19 -17 21 -17 40 0 25 23 26 47 2
68 -24 22 -28 21 -46 -5z"/>
<path d="M2719 2673 c-2 -34 2 -58 17 -100 14 -38 14 -45 0 -65 -9 -12 -16
-31 -16 -41 0 -14 4 -16 19 -7 11 5 28 10 38 10 50 1 66 53 29 97 -14 17 -26
40 -26 51 0 12 -11 33 -25 47 -31 30 -35 31 -36 8z"/>
<path d="M2652 2568 c-18 -18 -15 -77 3 -85 25 -9 55 26 55 64 0 28 -4 33 -23
33 -13 0 -28 -5 -35 -12z"/>
<path d="M5112 2348 c-16 -16 -15 -43 3 -58 21 -18 47 5 43 39 -3 29 -27 38
-46 19z"/>
<path d="M5080 2248 c0 -50 -21 -78 -60 -78 -29 0 -110 -80 -110 -109 0 -35
50 -28 90 14 19 19 44 35 55 35 12 0 31 10 43 23 30 32 31 116 2 142 -20 18
-20 17 -20 -27z"/>
<path d="M2937 2253 c-11 -10 -8 -41 4 -49 16 -9 41 20 33 39 -6 17 -25 22
-37 10z"/>
<path d="M4350 1587 c0 -31 8 -47 45 -86 27 -29 48 -62 52 -82 6 -31 40 -87
53 -88 13 -2 9 63 -5 92 -8 16 -15 40 -15 51 0 13 -26 47 -65 86 l-65 64 0
-37z"/>
<path d="M4492 1608 c-7 -7 -12 -21 -12 -33 0 -34 20 -48 42 -28 10 9 18 21
18 28 0 7 -8 19 -18 28 -14 13 -21 14 -30 5z"/>
<path d="M4690 1599 c0 -36 -54 -89 -91 -89 -28 0 -29 -2 -29 -48 0 -26 5 -53
12 -60 21 -21 79 -14 115 14 32 24 33 27 33 98 0 60 -3 76 -20 91 -19 18 -20
17 -20 -6z"/>
<path d="M4795 1580 c-15 -16 -17 -25 -9 -38 16 -25 41 -26 54 -1 10 18 9 25
-7 41 -19 18 -20 18 -38 -2z"/>
<path d="M4900 1402 c0 -28 33 -53 73 -56 48 -4 57 -12 57 -52 0 -67 39 -94
90 -62 16 10 24 10 39 1 16 -10 20 -9 25 12 3 13 3 32 0 42 -11 30 -56 73 -77
73 -11 0 -35 14 -54 30 -29 26 -41 30 -93 30 -52 0 -60 -3 -60 -18z"/>
<path d="M4752 1387 c-28 -30 -28 -38 3 -67 24 -23 25 -23 45 -5 25 23 26 57
2 78 -24 22 -24 21 -50 -6z"/>
<path d="M4602 1328 c-20 -25 -17 -36 31 -87 39 -42 51 -50 63 -40 24 20 16
43 -34 92 -38 38 -51 45 -60 35z"/>
<path d="M5088 1133 c-2 -47 -6 -58 -21 -61 -24 -5 -65 33 -82 76 -16 37 -43
42 -71 11 -13 -14 -25 -18 -42 -14 -32 8 -62 -20 -62 -57 0 -45 -40 -78 -93
-78 -61 0 -77 -20 -77 -96 1 -36 6 -67 15 -78 9 -12 15 -42 15 -72 0 -58 18
-85 40 -59 7 8 24 15 37 15 14 0 36 9 50 20 35 27 82 25 122 -5 35 -25 53 -23
80 9 23 28 41 7 41 -48 0 -69 26 -96 92 -96 59 0 78 18 78 74 0 32 6 48 25 66
23 21 25 31 25 105 l0 81 -55 54 c-37 37 -55 62 -55 80 0 14 -7 34 -15 44 -8
11 -15 30 -15 42 0 12 -7 27 -14 34 -13 10 -15 3 -18 -47z"/>
<path d="M3607 1132 c-15 -15 -27 -40 -27 -53 0 -14 -9 -34 -20 -44 -28 -25
-28 -105 0 -130 26 -23 68 -13 80 21 12 31 13 234 2 234 -5 0 -20 -13 -35 -28z"/>
<path d="M5622 668 c-30 -30 1 -94 33 -68 25 20 13 80 -15 80 -3 0 -11 -5 -18
-12z"/>
<path d="M5517 558 c-49 -53 -56 -82 -26 -101 12 -7 26 1 62 39 47 49 57 80
35 102 -18 18 -19 17 -71 -40z"/>
<path d="M5152 578 c-30 -30 1 -94 33 -68 25 20 13 80 -15 80 -3 0 -11 -5 -18
-12z"/>
</g>
</svg>
