<svg xmlns="http://www.w3.org/2000/svg" version="1.0" preserveAspectRatio="xMidYMid meet" viewBox="524 0 150.4 200">

<g transform="translate(0.000000,573.000000) scale(0.100000,-0.100000)" fill="#ffffff" stroke="none">
<path d="M5240 4730 l0 -1000 210 0 210 0 0 359 0 358 313 6 c285 5 318 7 382 27 203 64 321 182 372 373 13 46 17 106 17 237 0 166 -1 179 -28 255 -59 171 -155 270 -327 338 -97 39 -224 47 -716 47 l-433 0 0 -1000z m953 617 c100 -46 145 -144 134 -293 -9 -116 -47 -183 -132 -227 -37 -19 -61 -21 -287 -25 l-248 -4 0 292 0 293 239 -5 c229 -5 241 -7 294 -31z"/>
</g>
</svg>