<svg xmlns:inkscape="http://www.inkscape.org/namespaces/inkscape" xmlns:sodipodi="http://sodipodi.sourceforge.net/DTD/sodipodi-0.dtd" xmlns="http://www.w3.org/2000/svg" xmlns:svg="http://www.w3.org/2000/svg" version="1.1" id="svg1" inkscape:version="1.4 (86a8ad7, 2024-10-11)" sodipodi:docname="Reroll.svg" viewBox="45.51 113.25 39.78 39.33">
  <sodipodi:namedview id="namedview1" pagecolor="#505050" bordercolor="#ffffff" borderopacity="1" inkscape:showpageshadow="0" inkscape:pageopacity="0" inkscape:pagecheckerboard="1" inkscape:deskcolor="#505050" inkscape:document-units="mm" inkscape:zoom="2.9531033" inkscape:cx="228.06517" inkscape:cy="501.84496" inkscape:window-width="1440" inkscape:window-height="830" inkscape:window-x="-6" inkscape:window-y="-6" inkscape:window-maximized="1" inkscape:current-layer="layer1"/>
  <defs id="defs1">
    <linearGradient id="swatch6" inkscape:swatch="solid">
      <stop style="stop-color:#636363;stop-opacity:1;" offset="0" id="stop6"/>
    </linearGradient>
  </defs>
  <g inkscape:label="Ebene 1" inkscape:groupmode="layer" id="layer1">
    <path d="m 50.582959,145.42265 2.278931,-2.52801 a 16.306292,16.127104 0 0 1 -3.763595,-10.29395 16.306292,16.127104 0 0 1 16.305982,-16.12718 16.306292,16.127104 0 0 1 8.914701,2.62516 l 2.260844,-2.50682 a 19.890093,19.352524 0 0 0 -11.175545,-3.34398 19.890093,19.352524 0 0 0 -19.890259,19.35282 19.890093,19.352524 0 0 0 5.068941,12.82196 z" style="fill:#ffffff;stroke-width:0.264583;fill-opacity:1" id="path13"/>
    <path d="m 81.159387,120.79263 -2.36213,2.61999 a 16.306292,16.127104 0 0 1 2.913518,9.18807 16.306292,16.127104 0 0 1 -16.306498,16.12718 16.306292,16.127104 0 0 1 -7.682219,-1.94355 l -2.264978,2.51251 a 19.890093,19.352524 0 0 0 9.947197,2.65617 19.890093,19.352524 0 0 0 19.890258,-19.35231 19.890093,19.352524 0 0 0 -4.135148,-11.80806 z" style="fill:#ffffff;stroke-width:0.264583;fill-opacity:1" id="path9"/>
    <path sodipodi:type="star" style="fill:#ffffff;fill-opacity:1;stroke-width:0.264583" id="path14" inkscape:flatsided="true" sodipodi:sides="3" sodipodi:cx="76.023888" sodipodi:cy="118.72399" sodipodi:r1="4.3042922" sodipodi:r2="4.0867753" sodipodi:arg1="0.74375558" sodipodi:arg2="1.7909531" inkscape:rounded="0" inkscape:randomized="0" d="m 79.19155,121.63824 -7.275307,-1.6281 5.047627,-5.48655 z" inkscape:transform-center-x="-9.5409392" inkscape:transform-center-y="-14.568517" transform="rotate(-7.0620888,70.407584,126.46991)"/>
    <path sodipodi:type="star" style="fill:#ffffff;fill-opacity:1;stroke-width:0.264583" id="path14-5" inkscape:flatsided="true" sodipodi:sides="3" sodipodi:cx="55.814201" sodipodi:cy="123.8556" sodipodi:r1="4.3042922" sodipodi:r2="4.0867753" sodipodi:arg1="0.74375558" sodipodi:arg2="1.7909531" inkscape:rounded="0" inkscape:randomized="0" d="m 58.981863,126.76985 -7.275306,-1.6281 5.047627,-5.48655 z" inkscape:transform-center-x="8.2376127" inkscape:transform-center-y="17.085605" transform="rotate(-73.589155,72.460911,134.98815)"/>
  </g>
</svg>