<svg xmlns:inkscape="http://www.inkscape.org/namespaces/inkscape" xmlns:sodipodi="http://sodipodi.sourceforge.net/DTD/sodipodi-0.dtd" xmlns="http://www.w3.org/2000/svg" xmlns:svg="http://www.w3.org/2000/svg" version="1.1" id="svg1" inkscape:version="1.4 (86a8ad7, 2024-10-11)" sodipodi:docname="Wasser.svg" viewBox="58.55 50.25 93.44 156.59">
  <sodipodi:namedview id="namedview1" pagecolor="#505050" bordercolor="#ffffff" borderopacity="1" inkscape:showpageshadow="0" inkscape:pageopacity="0" inkscape:pagecheckerboard="1" inkscape:deskcolor="#505050" inkscape:document-units="mm" inkscape:zoom="0.5" inkscape:cx="192" inkscape:cy="594" inkscape:window-width="1440" inkscape:window-height="830" inkscape:window-x="-6" inkscape:window-y="-6" inkscape:window-maximized="1" inkscape:current-layer="svg1" showgrid="false"/>
  <defs id="defs1"/>
  <g id="g59-6-3-6-4" transform="matrix(7.3617197,-0.484587,-0.19340957,6.838304,-674.32523,-559.77209)" style="fill:#0091cd;fill-opacity:1" inkscape:label="g59-6-3">
    <g id="g53-2-1-8-0-2" transform="matrix(0.5336998,0,0,0.54696141,51.891927,53.10379)" style="fill:#0091cd;fill-opacity:1">
      <path d="m 99.258024,100.03989 c -0.174911,0.16411 -0.345837,0.33262 -0.51263,0.50488 -0.166697,0.17218 -0.329525,0.34812 -0.487826,0.52813 a 15,15 0 0 0 1.000456,-1.03301 z" style="fill:#0091cd;fill-opacity:1;stroke-width:0.264583" id="path53-3-8-7-6-0"/>
      <path d="m 100.74889,98.731958 v -5.17e-4 c 0.23935,-0.184075 0.484,-0.361021 0.7338,-0.5302 0.24992,-0.169246 0.50544,-0.330766 0.76533,-0.484725 a 15,15 0 0 1 0.11576,-0.06718 c 0.2521,-0.146322 0.50837,-0.285473 0.76894,-0.417029 0.022,-0.01118 0.0435,-0.02303 0.0656,-0.03411 0,0 5.2e-4,0 5.2e-4,0 0.26866,-0.133974 0.54011,-0.262974 0.817,-0.380855 -0.006,-0.0038 -0.0129,-0.007 -0.0191,-0.01085 a 15,15 0 0 0 -2.13527,-1.093473 c -0.007,-0.003 -0.014,-0.0063 -0.0212,-0.0093 -0.60967,1.580486 -1.48302,3.046215 -2.582276,4.335131 v 5.2e-4 c 0.209774,-0.210819 0.427674,-0.412257 0.649056,-0.60978 0.02692,-0.02379 0.05456,-0.04712 0.08165,-0.0708 0.21508,-0.189127 0.43519,-0.371495 0.66042,-0.54777 0.001,-8.23e-4 0.002,-0.0022 0.003,-0.0031 a 15,15 0 0 1 0.0925,-0.07286 c 0.001,-0.0017 0.003,-0.0023 0.004,-0.0031 z" style="fill:#0091cd;fill-opacity:1;stroke-width:0.264583" id="path51-2-9-4-6-9"/>
      <path d="m 99.953589,80.879818 a 0.22696359,0.2335915 0 0 0 -0.188102,0.113688 0.22696359,0.2335915 0 0 0 0.01292,0.234611 15,15 0 0 1 3.065443,10.101192 15,15 0 0 1 -1.00355,4.373377 15,15 0 0 1 0.0212,0.01033 c 0.73992,0.30685 1.45374,0.672572 2.13527,1.093473 a 15,15 0 0 1 0.0202,0.01033 c -3.6e-4,1.52e-4 -7.8e-4,3.6e-4 -0.001,5.17e-4 3e-4,2.01e-4 7.8e-4,3.18e-4 0.001,5.17e-4 a 15,15 0 0 0 -1.64021,0.826823 c -0.006,0.0036 -0.0134,0.0059 -0.0196,0.0098 a 15,15 0 0 0 -0.10439,0.05994 c -0.004,0.0027 -0.008,0.0055 -0.0114,0.0072 a 15,15 0 0 0 -1.49241,1.010274 c -10e-4,8.13e-4 -0.003,0.0019 -0.004,0.0036 v 5.17e-4 a 15,15 0 0 0 -0.092,0.07235 15,15 0 0 0 -1.394228,1.231453 c -0.158301,0.18001 -0.321129,0.35595 -0.487826,0.52813 -0.166794,0.17227 -0.337718,0.34076 -0.51263,0.50488 a 15,15 0 0 0 -2.84117,5.42964 11.882243,12.414646 3.7530317 0 0 3.88245,11.84993 11.882243,12.414646 3.7530317 0 0 3.382734,2.06447 11.287967,11.630369 3.7530317 0 0 0.84078,0.26562 11.882243,12.414646 3.7530317 0 0 0.9803,0.28008 11.287967,11.630369 3.7530317 0 0 9.60562,-2.66547 11.287967,11.630369 3.7530317 0 0 3.31866,-5.2343 15,15 0 0 0 -0.1633,-7.87084 60,60 0 0 0 -11.63185,-18.898591 60,60 0 0 0 -5.67872,-5.413623 z" style="fill:#0091cd;fill-opacity:1;stroke-width:0.264583" id="path49-2-2-2-1-7"/>
      <path d="m 100.74889,98.731958 a 15,15 0 0 1 1.49241,-1.010274 c 0.004,-0.0018 0.007,-0.0045 0.0114,-0.0072 a 15,15 0 0 1 0.10439,-0.05994 c 0.006,-0.004 0.0134,-0.0062 0.0196,-0.0098 a 15,15 0 0 1 1.64021,-0.826823 c -2.6e-4,-1.99e-4 -7.4e-4,-3.16e-4 -0.001,-5.17e-4 -0.27689,0.117881 -0.54834,0.246881 -0.817,0.380855 0,0 -5.2e-4,0 -5.2e-4,0 -0.0221,0.01108 -0.0436,0.02293 -0.0656,0.03411 -0.26057,0.131556 -0.51684,0.270707 -0.76894,0.417029 a 15,15 0 0 0 -0.11576,0.06718 c -0.25989,0.153959 -0.51541,0.315479 -0.76533,0.484725 -0.2498,0.169179 -0.49445,0.346125 -0.7338,0.5302 z" style="fill:#0091cd;fill-opacity:1;stroke-width:0.00406142" id="path52-1-7-7-8-3"/>
      <path d="m 104.50318,120.96264 a 11.882243,12.414646 3.7530317 0 1 -0.9803,-0.28008 11.287967,11.630369 3.7530317 0 1 -0.84078,-0.26562 11.287967,11.630369 3.7530317 0 0 0.84078,0.26613 11.882243,12.414646 3.7530317 0 0 0.9803,0.27957 z" style="fill:#0091cd;fill-opacity:1;stroke-width:0.00406142" id="path50-6-9-7-4-7"/>
    </g>
  </g>
  <g inkscape:label="Ebene 1" inkscape:groupmode="layer" id="layer1"/>
</svg>