<svg xmlns:inkscape="http://www.inkscape.org/namespaces/inkscape" xmlns:sodipodi="http://sodipodi.sourceforge.net/DTD/sodipodi-0.dtd" xmlns="http://www.w3.org/2000/svg" xmlns:svg="http://www.w3.org/2000/svg" version="1.1" id="svg1" inkscape:version="1.4 (86a8ad7, 2024-10-11)" sodipodi:docname="Wolke.svg" viewBox="50.68 88.19 121.13 100.84">
  <sodipodi:namedview id="namedview1" pagecolor="#505050" bordercolor="#ffffff" borderopacity="1" inkscape:showpageshadow="0" inkscape:pageopacity="0" inkscape:pagecheckerboard="1" inkscape:deskcolor="#505050" inkscape:document-units="mm" inkscape:zoom="1.0440797" inkscape:cx="420.46599" inkscape:cy="492.29959" inkscape:window-width="1440" inkscape:window-height="830" inkscape:window-x="-6" inkscape:window-y="-6" inkscape:window-maximized="1" inkscape:current-layer="layer1"/>
  <defs id="defs1"/>
  <rect style="fill:#3562ed;fill-opacity:1;stroke-width:0.264583" id="rect9" width="2.914248" height="10.389943" x="-24.143661" y="164.51521" ry="3.0409548" rx="1.3937708" transform="rotate(-33.730516)"/>
  <rect style="fill:#3562ed;fill-opacity:1;stroke-width:0.264583" id="rect9-9" width="2.914248" height="10.389943" x="-5.5690918" y="179.3687" ry="3.0409548" rx="1.3937708" transform="rotate(-33.730516)"/>
  <rect style="fill:#3562ed;fill-opacity:1;stroke-width:0.264583" id="rect9-9-5-2" width="2.914248" height="10.389943" x="23.394556" y="199.25" ry="3.0409548" rx="1.3937708" transform="rotate(-33.730516)"/>
  <rect style="fill:#3562ed;fill-opacity:1;stroke-width:0.264583" id="rect9-9-5-2-1-7-7-9" width="2.914248" height="10.389943" x="42.405933" y="210.31644" ry="3.0409548" rx="1.3937708" transform="rotate(-33.730516)"/>
  <rect style="fill:#3562ed;fill-opacity:1;stroke-width:0.264583" id="rect9-9-5-2-1-7-7-9-0" width="2.914248" height="10.389943" x="32.274063" y="215.47424" ry="3.0409548" rx="1.3937708" transform="rotate(-33.730516)"/>
  <rect style="fill:#3562ed;fill-opacity:1;stroke-width:0.264583" id="rect9-9-5-2-1-7-7-9-0-0" width="2.914248" height="10.389943" x="22.617247" y="220.25397" ry="3.0409548" rx="1.3937708" transform="rotate(-33.730516)"/>
  <rect style="fill:#3562ed;fill-opacity:1;stroke-width:0.264583" id="rect9-9-5-2-1-7-7-9-0-0-6" width="2.914248" height="10.389943" x="9.9725437" y="213.68132" ry="3.0409548" rx="1.3937708" transform="rotate(-33.730516)"/>
  <rect style="fill:#3562ed;fill-opacity:1;stroke-width:0.264583" id="rect9-9-5-2-1-7-7-9-0-0-6-7" width="2.914248" height="10.389943" x="-0.11873978" y="216.28069" ry="3.0409548" rx="1.3937708" transform="rotate(-33.730516)"/>
  <rect style="fill:#3562ed;fill-opacity:1;stroke-width:0.264583" id="rect9-9-5-2-1-7-7-9-0-0-6-9" width="2.914248" height="10.389943" x="15.700623" y="226.82613" ry="3.0409548" rx="1.3937708" transform="rotate(-33.730516)"/>
  <rect style="fill:#3562ed;fill-opacity:1;stroke-width:0.264583" id="rect9-9-5-2-1-7-7-9-0-0-6-5" width="2.914248" height="10.389943" x="-33.732788" y="171.78763" ry="3.0409548" rx="1.3937708" transform="rotate(-33.730516)"/>
  <rect style="fill:#3562ed;fill-opacity:1;stroke-width:0.264583" id="rect9-9-5-2-1-7-7-9-0-0-6-0" width="2.914248" height="10.389943" x="-6.8122234" y="200.50488" ry="3.0409548" rx="1.3937708" transform="rotate(-33.730516)"/>
  <rect style="fill:#3562ed;fill-opacity:1;stroke-width:0.264583" id="rect9-9-5-2-1-7-7-9-0-0-6-0-3" width="2.914248" height="10.389943" x="-28.226307" y="186.2373" ry="3.0409548" rx="1.3937708" transform="rotate(-33.730516)"/>
  <rect style="fill:#3562ed;fill-opacity:1;stroke-width:0.264583" id="rect9-9-5-2-1-7-7-9-0-0-6-0-3-4" width="2.914248" height="10.389943" x="-22.89884" y="198.5155" ry="3.0409548" rx="1.3937708" transform="rotate(-33.730516)"/>
  <rect style="fill:#3562ed;fill-opacity:1;stroke-width:0.264583" id="rect9-9-5-2-1-7-7-9-0-0-6-0-3-4-6" width="2.914248" height="10.389943" x="-14.42178" y="207.27608" ry="3.0409548" rx="1.3937708" transform="rotate(-33.730516)"/>
  <rect style="fill:#f6fd14;fill-opacity:1;stroke-width:0.193983" id="rect10" width="2.0985627" height="28.094931" x="-5.569653" y="170.84306" rx="0" ry="0" transform="matrix(0.9541256,-0.29940665,0.61245431,0.79050599,0,0)"/>
  <path sodipodi:type="star" style="fill:#f6fd14;fill-opacity:1;stroke-width:0.264583" id="path12" inkscape:flatsided="true" sodipodi:sides="3" sodipodi:cx="44.215141" sodipodi:cy="175.47183" sodipodi:r1="3.3800602" sodipodi:r2="1.6900301" sodipodi:arg1="0.96441344" sodipodi:arg2="2.011611" inkscape:rounded="0" inkscape:randomized="0" d="m 46.141434,178.24928 -5.294777,-2.49795 4.810676,-3.33644 z" inkscape:transform-center-x="0.72109596" inkscape:transform-center-y="-0.13974789" transform="translate(74.184671,-4.6589408)"/>
  <rect style="fill:#f6fd14;fill-opacity:1;stroke-width:0.123051" id="rect10-9-2" width="1.5728403" height="15.083584" x="109.38596" y="-168.20195" rx="0" ry="0" transform="matrix(-0.37449403,0.92722933,-0.94330795,-0.33191881,0,0)"/>
  <rect style="fill:#3562ed;fill-opacity:1;stroke-width:0.264583" id="rect9-9-5" width="2.914248" height="10.389943" x="9.4821081" y="178.77216" ry="3.0409548" rx="1.3937708" transform="rotate(-33.730516)"/>
  <rect style="fill:#f6fd14;fill-opacity:1;stroke-width:0.172489" id="rect10-9" width="1.9189749" height="24.292576" x="-25.115078" y="192.63034" rx="0" ry="0" transform="matrix(0.96254792,-0.27111156,0.65341971,0.75699583,0,0)"/>
  <rect style="fill:#f6fd14;fill-opacity:1;stroke-width:0.264583" id="rect10-6" width="2.8496599" height="38.490639" x="16.375767" y="178.71098" rx="0" ry="0" transform="matrix(0.95269305,-0.30393413,0.60612908,0.79536629,0,0)"/>
  <path sodipodi:type="star" style="fill:#f6fd14;fill-opacity:1;stroke-width:0.264583" id="path12-5" inkscape:flatsided="true" sodipodi:sides="3" sodipodi:cx="44.215141" sodipodi:cy="175.47183" sodipodi:r1="3.3800602" sodipodi:r2="1.6900301" sodipodi:arg1="0.96441344" sodipodi:arg2="2.011611" inkscape:rounded="0" inkscape:randomized="0" d="m 46.141434,178.24928 -5.294777,-2.49795 4.810676,-3.33644 z" inkscape:transform-center-x="0.97771164" inkscape:transform-center-y="-0.19262456" transform="matrix(1.3558716,0,0,1.3784441,89.843516,-57.719489)"/>
  <rect style="fill:#f6fd14;fill-opacity:1;stroke-width:0.168188" id="rect10-9-2-7" width="2.1631284" height="20.489189" x="105.72974" y="-199.54263" rx="0" ry="0" transform="matrix(-0.36920349,0.92934858,-0.94156825,-0.33682225,0,0)"/>
  <rect style="fill:#f6fd14;fill-opacity:1;stroke-width:0.235135" id="rect10-9-5" width="2.6050918" height="33.252945" x="-6.6390147" y="206.30452" rx="0" ry="0" transform="matrix(0.9613625,-0.27528557,0.64722347,0.76230032,0,0)"/>
  <rect style="fill:#f6fd14;fill-opacity:1;stroke-width:0.243141" id="rect10-6-1" width="2.6171377" height="35.392651" x="-22.34922" y="155.68259" rx="0" ry="0" transform="matrix(0.95249607,-0.30455088,0.60527239,0.79601843,0,0)"/>
  <path sodipodi:type="star" style="fill:#f6fd14;fill-opacity:1;stroke-width:0.264583" id="path12-5-7" inkscape:flatsided="true" sodipodi:sides="3" sodipodi:cx="44.215141" sodipodi:cy="175.47183" sodipodi:r1="3.3800602" sodipodi:r2="1.6900301" sodipodi:arg1="0.96441344" sodipodi:arg2="2.011611" inkscape:rounded="0" inkscape:randomized="0" d="m 46.141434,178.24928 -5.294777,-2.49795 4.810676,-3.33644 z" inkscape:transform-center-x="0.8977503" inkscape:transform-center-y="-0.17727016" transform="matrix(1.2449797,0,0,1.2685368,41.650574,-48.61177)"/>
  <rect style="fill:#f6fd14;fill-opacity:1;stroke-width:0.154601" id="rect10-9-2-7-7" width="1.990051" height="18.81823" x="115.30593" y="-146.93887" rx="0" ry="0" transform="matrix(-0.3684916,0.92963108,-0.94132918,-0.33748983,0,0)"/>
  <rect style="fill:#f6fd14;fill-opacity:1;stroke-width:0.216063" id="rect10-9-5-7" width="2.3924365" height="30.573006" x="-43.474495" y="182.06972" rx="0" ry="0" transform="matrix(0.96119942,-0.27585443,0.64638303,0.76301309,0,0)"/>
  <g inkscape:label="Ebene 1" inkscape:groupmode="layer" id="layer1">
    <ellipse style="fill:#636363;stroke-width:0.264583;fill-opacity:1" id="path3" cx="90.394211" cy="123.81398" rx="18.75256" ry="19.766211"/>
    <ellipse style="fill:#636363;stroke-width:0.264583;fill-opacity:1" id="path1" cx="66.647614" cy="126.45307" rx="15.965016" ry="14.951365"/>
    <ellipse style="fill:#636363;stroke-width:0.264583;fill-opacity:1" id="path2" cx="81.092148" cy="113.02219" rx="14.697952" ry="15.711604"/>
    <ellipse style="fill:#636363;stroke-width:0.264583;fill-opacity:1" id="path4" cx="105.16638" cy="106.18003" rx="19.512798" ry="17.992321"/>
    <ellipse style="fill:#636363;stroke-width:0.264583;fill-opacity:1" id="path5" cx="125.69283" cy="109.98122" rx="14.697952" ry="14.191126"/>
    <ellipse style="fill:#636363;stroke-width:0.264583;fill-opacity:1" id="path6" cx="143.43175" cy="115.5563" rx="12.670649" ry="11.656997"/>
    <ellipse style="fill:#636363;stroke-width:0.264583;fill-opacity:1" id="path7" cx="117.58362" cy="128.73378" rx="12.670649" ry="10.643345"/>
    <ellipse style="fill:#636363;stroke-width:0.264583;fill-opacity:1" id="path8" cx="136.33617" cy="132.53499" rx="13.6843" ry="11.403584"/>
    <ellipse style="fill:#636363;stroke-width:0.264583;fill-opacity:1" id="path9" cx="158.12968" cy="128.48038" rx="13.6843" ry="12.924062"/>
    <rect style="fill:#3562ed;fill-opacity:1;stroke-width:0.264583" id="rect9-9-5-2-1-7-7" width="2.914248" height="10.389943" x="-17.371912" y="182.94574" ry="3.0409548" rx="1.3937708" transform="rotate(-33.730516)"/>
  </g>
  <rect style="fill:#3562ed;fill-opacity:1;stroke-width:0.264583" id="rect9-9-5-2-1" width="2.914248" height="10.389943" x="15.34341" y="200.71646" ry="3.0409548" rx="1.3937708" transform="rotate(-33.730516)"/>
  <rect style="fill:#3562ed;fill-opacity:1;stroke-width:0.264583" id="rect9-9-5-2-1-7" width="2.914248" height="10.389943" x="3.0689797" y="194.61784" ry="3.0409548" rx="1.3937708" transform="rotate(-33.730516)"/>
</svg>